<svg id="Layer_1" data-name="Layer 1" xmlns="http://www.w3.org/2000/svg" viewBox="0 0 1208 527"><title>Artboard 1</title><g id="yVur5u.tif"><path d="M1203,369q-1.39,7-2.78,14c-9.14,45.94-43.42,73.31-87,80.1-26.74,4.16-53.08,2.81-78.49-7.09-33-12.85-54.63-36.2-62.3-71.05-2.5-11.41-2.29-23.41-3.37-35.67H1041c0,4.16,0,8.43,0,12.7.1,23.27,14.4,38.71,37.75,39.9a98.57,98.57,0,0,0,24.27-1.5c15.83-3.2,25.85-14.6,28-30,2.31-16.85-3.54-30.55-18.44-38.17-12.5-6.4-26-10.84-39-16.31-15.87-6.7-32.34-12.36-47.37-20.61-32-17.55-48.13-45.2-49.76-82-2-45.14,26.21-86.56,69.79-99.15,36.7-10.6,72.54-8.54,105.7,11.92,24.73,15.25,37.89,38.55,42,67,1.29,8.82,1.54,17.79,2.31,27.12h-71.33c0-3.66,0-7.27,0-10.87-.27-24.41-18.88-40.76-43.25-38.5-11.09,1-20.94,4.2-27.82,13.35-10.92,14.54-8.56,37.73,11.15,48.75,8.19,4.58,17.29,7.58,26,11.16,18.73,7.68,37.83,14.54,56.14,23.09,20,9.34,36.41,23.21,46.21,43.69a93.47,93.47,0,0,1,8.66,31.5,11.45,11.45,0,0,0,1,2.68Z"/><path d="M3,337c1.38-1.13,2.87-2.16,4.13-3.41q54.11-54.06,108.18-108.14c16.77-16.75,36.72-16.67,53.55.09,10.26,10.21,20.59,20.35,30.8,30.42l-33,32.57-24.32-25L36.3,370.61,3,338Z"/><path d="M136,512c-12.51-3.22-20.71-12.34-29.38-21-7.29-7.29-15.25-13.92-22.76-20.71l33.82-33.54,23.89,24.46,24.33-25.77,33.94,34.18c-1.73,1.45-4.11,3.19-6.18,5.23C185.35,483,177,491.2,168.93,499.6c-5.88,6.11-13.08,9.73-20.93,12.4Z"/><path d="M143,3c2.78,3,5.46,6.17,8.36,9.09C162.73,23.55,174.18,34.94,185.23,46L142,89.21l-42.6-42.9L142,3Z"/><path d="M3,256c9.36-9.13,18.76-18.23,28.06-27.43a39.37,39.37,0,0,0,3.66-4.82l33,33.1q-15.57,15.48-32.09,31.89L3,257Z"/><path d="M558.05,114.25h75.34v5.69q0,116.24,0,232.48c0,24.32-4.92,47.24-19,67.49-15.6,22.38-37.48,35.45-63.71,41.34-30.76,6.91-61.18,5.8-90.4-6.92C425.13,439,405.79,411.49,400.13,374a136.08,136.08,0,0,1-1.23-20.39q-.13-116.49-.06-233v-6.32h75.21v6.18q0,116.74,0,233.48c0,11.6,2.53,22.56,10.67,31.34,12.95,14,29.22,15.79,46.36,10.65,16.93-5.08,24.66-18.22,26.9-35,.52-3.89,0-7.91,0-11.87V114.25Z"/><path d="M923,114.14v66.51H849.35V459.46H774.13V180.91H700.88V114.14Z"/><path d="M68.15,79.49c5.63,5.78,11.45,12,17.57,17.84a9.61,9.61,0,0,0,6,2.51q50.24.22,100.49,0a10.41,10.41,0,0,0,6.45-2.65c6.06-5.68,11.78-11.74,17.43-17.46L259,122.86q-20.74,20.58-43.13,42.76c-4.51-4.51-10-9.71-15.16-15.28a12.36,12.36,0,0,0-10.5-4.34c-8.13.31-16.28.09-25.07.09v61.69c-16.74-7.09-26.4-8.47-46.07-.15V146.15c-10.42,0-20.35-.08-30.28.11-1.21,0-2.54,1.44-3.56,2.46-5.88,5.9-11.68,11.87-17.1,17.41L24.93,122.59Z"/><path d="M84.91,338l33.11-33c7.71,8.06,15.62,16.31,24,25L246.74,223.2,280.46,257c-11.59,11.55-23.63,23.52-35.63,35.51q-38.9,38.86-77.77,77.74c-14.25,14.22-35.2,14.24-49.46.14C106.62,359.56,95.67,348.66,84.91,338Z"/><path d="M18.78,403.12c10.44-10.33,20.48-20.27,30.53-30.2.69-.69,1.48-1.29,2.4-2.08l24.18,24.85,24.78-25.19,32.94,33.06c-11.86,11.9-23.43,24.79-36.38,36.12-12.09,10.58-31.9,9.09-43.94-2.25C41.67,426.5,30.63,415,18.78,403.12Z"/><path d="M232.19,370.2l32.59,33.22c-.46.52-1.35,1.64-2.36,2.66q-14.81,14.85-29.65,29.67c-14.31,14.23-35.6,14.16-50-.13q-14.5-14.44-29-28.95c-1.15-1.16-2.22-2.39-3.75-4l29.22-28.9c1-1,2.15-2,3.46-3.19,8.1,8.41,16,16.66,24.42,25.34Z"/><path d="M279.6,338l-31.34,31-31.42-31.68,31.3-31C258.31,316.51,269,327.3,279.6,338Z"/></g></svg>